<svg width="56" height="48" viewBox="0 0 56 48" fill="none" xmlns="http://www.w3.org/2000/svg">
<path fill-rule="evenodd" clip-rule="evenodd" d="M47.4224 32C44.2763 39.6298 36.7652 45 27.9999 45C16.8611 45 7.74785 36.3277 7.04368 25.3668L11.1785 28.5973L12.4098 27.0212L6.28053 22.2325L5.49252 21.6168L4.87686 22.4049L0.0881348 28.5341L1.66416 29.7655L4.1389 26.5979C5.43409 38.6309 15.6229 48 27.9999 48C38.4497 48 47.3396 41.3215 50.6343 32H47.4224ZM48.9384 22.3802C48.1114 11.5391 39.0529 3 27.9999 3C19.2346 3 11.7235 8.37023 8.57747 16H5.36556C8.66025 6.67846 17.5502 0 27.9999 0C40.2872 0 50.4178 9.23365 51.8313 21.1406L54.267 17.9084L55.8642 19.112L51.1832 25.3239L50.5814 26.1226L49.7827 25.5208L43.5708 20.8397L44.7745 19.2425L48.9384 22.3802Z" fill="white"/>
<path d="M23.0131 25.86C23.1331 26.3933 23.1931 26.9867 23.1931 27.64C23.1931 28.2933 23.1465 28.8533 23.0531 29.32C22.8931 30.2267 22.5265 30.9267 21.9531 31.42C21.3931 31.9133 20.6265 32.16 19.6531 32.16C18.6398 32.16 17.8131 31.8933 17.1731 31.36C16.5331 30.8133 16.1731 30.0733 16.0931 29.14C16.0665 28.8467 16.0398 28.42 16.0131 27.86C16.0131 27.7 16.0931 27.62 16.2531 27.62H18.0931C18.2531 27.62 18.3331 27.7 18.3331 27.86C18.3598 28.3133 18.3865 28.6533 18.4131 28.88C18.4798 29.2933 18.6198 29.6133 18.8331 29.84C19.0465 30.0533 19.3198 30.16 19.6531 30.16C19.9731 30.16 20.2398 30.06 20.4531 29.86C20.6665 29.6467 20.8065 29.3467 20.8731 28.96C20.9398 28.56 20.9731 28.04 20.9731 27.4C20.9731 26.72 20.9265 26.1533 20.8331 25.7C20.7531 25.3533 20.6131 25.0867 20.4131 24.9C20.2131 24.7133 19.9598 24.62 19.6531 24.62C19.4531 24.62 19.2731 24.68 19.1131 24.8C19.0331 24.8533 18.9731 24.88 18.9331 24.88C18.9065 24.88 18.8531 24.8533 18.7731 24.8L17.8331 23.84C17.7798 23.7867 17.7531 23.7267 17.7531 23.66C17.7531 23.6067 17.7731 23.5533 17.8131 23.5L20.3131 20.1C20.3398 20.0733 20.3398 20.0467 20.3131 20.02C20.2998 19.9933 20.2731 19.98 20.2331 19.98H16.4331C16.3665 19.98 16.3065 19.96 16.2531 19.92C16.2131 19.8667 16.1931 19.8067 16.1931 19.74V18.24C16.1931 18.1733 16.2131 18.12 16.2531 18.08C16.3065 18.0267 16.3665 18 16.4331 18H22.9131C22.9798 18 23.0331 18.0267 23.0731 18.08C23.1265 18.12 23.1531 18.1733 23.1531 18.24V19.82C23.1531 19.9133 23.1198 20.0133 23.0531 20.12L20.7731 23.24C20.7198 23.32 20.7331 23.3667 20.8131 23.38C21.3598 23.4467 21.8265 23.7067 22.2131 24.16C22.6131 24.6133 22.8798 25.18 23.0131 25.86ZM31.8888 26.28C31.9554 26.72 31.9888 27.1867 31.9888 27.68C31.9888 27.9867 31.9754 28.42 31.9488 28.98C31.8821 29.9933 31.5288 30.78 30.8888 31.34C30.2621 31.8867 29.4288 32.16 28.3888 32.16C27.4021 32.16 26.6021 31.9067 25.9888 31.4C25.3754 30.88 25.0088 30.12 24.8888 29.12C24.8088 28.76 24.7688 28.34 24.7688 27.86L24.7488 21.36C24.7488 20.28 25.0754 19.4267 25.7288 18.8C26.3954 18.16 27.2688 17.84 28.3488 17.84C29.3621 17.84 30.1888 18.16 30.8288 18.8C31.4688 19.44 31.7888 20.2933 31.7888 21.36V21.86C31.7888 21.9267 31.7621 21.9867 31.7088 22.04C31.6688 22.08 31.6154 22.1 31.5488 22.1H29.7088C29.6421 22.1 29.5821 22.08 29.5288 22.04C29.4888 21.9867 29.4688 21.9267 29.4688 21.86V21.48C29.4688 21.0267 29.3554 20.6533 29.1288 20.36C28.9154 20.0533 28.6554 19.9 28.3488 19.9C27.9754 19.9 27.6688 20.0467 27.4288 20.34C27.2021 20.6333 27.0888 21.0133 27.0888 21.48V23.54C27.0888 23.58 27.1021 23.6067 27.1288 23.62C27.1554 23.6333 27.1821 23.6267 27.2088 23.6C27.5954 23.24 28.0754 23.06 28.6488 23.06C29.5688 23.06 30.3154 23.3533 30.8888 23.94C31.4621 24.5267 31.7954 25.3067 31.8888 26.28ZM29.5888 28.8C29.6288 28.32 29.6488 27.8933 29.6488 27.52C29.6488 27.1733 29.6154 26.7 29.5488 26.1C29.3888 25.3267 28.9954 24.94 28.3688 24.94C28.0488 24.94 27.7821 25.0467 27.5688 25.26C27.3688 25.46 27.2354 25.76 27.1688 26.16C27.1154 26.6267 27.0888 27.08 27.0888 27.52C27.0888 27.9067 27.1088 28.3533 27.1488 28.86C27.2154 29.2867 27.3488 29.6133 27.5488 29.84C27.7621 30.0667 28.0354 30.18 28.3688 30.18C28.7021 30.18 28.9688 30.06 29.1688 29.82C29.3821 29.58 29.5221 29.24 29.5888 28.8ZM37.023 32.22C35.903 32.22 35.003 31.8667 34.323 31.16C33.643 30.44 33.303 29.5 33.303 28.34V21.66C33.303 20.5 33.643 19.5667 34.323 18.86C35.003 18.14 35.903 17.78 37.023 17.78C38.1563 17.78 39.063 18.14 39.743 18.86C40.4363 19.5667 40.783 20.5 40.783 21.66V28.34C40.783 29.5 40.4363 30.44 39.743 31.16C39.063 31.8667 38.1563 32.22 37.023 32.22ZM37.023 30.2C37.463 30.2 37.8096 30.0467 38.063 29.74C38.3296 29.42 38.463 29 38.463 28.48V21.52C38.463 21 38.3296 20.5867 38.063 20.28C37.8096 19.96 37.463 19.8 37.023 19.8C36.5963 19.8 36.2563 19.96 36.003 20.28C35.7496 20.5867 35.623 21 35.623 21.52V28.48C35.623 29 35.7496 29.42 36.003 29.74C36.2563 30.0467 36.5963 30.2 37.023 30.2Z" fill="white"/>
</svg>
